<svg xmlns="http://www.w3.org/2000/svg" width="102.115" height="175.118" viewBox="0 0 102.115 175.118"><defs><style>.a{fill:#d6d6d6;}.b{fill:#fff;}</style></defs><g transform="translate(-178.452 -37.677)"><path class="a" d="M61.419.5c-6.641,0-12.576,3.442-12.576,9.8,0,7.293,10.525,7.8,10.525,11.461,0,1.543-1.768,2.924-4.788,2.924a15.9,15.9,0,0,1-7.488-1.93l-1.37,6.418a23.373,23.373,0,0,0,8.588,1.63c7.261,0,12.974-3.611,12.974-10.079,0-7.707-10.569-8.2-10.569-11.6,0-1.209,1.451-2.533,4.462-2.533A15.167,15.167,0,0,1,67.347,8l1.341-6.2A20.073,20.073,0,0,0,61.419.5ZM.661.968.5,1.9A31.227,31.227,0,0,1,5.81,3.435C9.05,4.6,9.281,5.285,9.827,7.4l5.946,22.922h7.971L36.023.968H28.07L20.18,20.926,16.96,4.008A3.481,3.481,0,0,0,13.339.968H.661Zm38.56,0L32.982,30.322h7.583L46.782.968H39.221Zm42.295,0c-1.829,0-2.8.979-3.508,2.69L66.9,30.322H74.85l1.539-4.444h9.688l.936,4.444h7.017L87.908.968ZM82.55,8.9l2.357,11.015H78.592Z" transform="translate(177.952 181.991)"/><g transform="translate(50.985 -669.723)"><path class="b" d="M225.627,731.8a42.315,42.315,0,0,0-76.673,0l4.8,2.242a37.01,37.01,0,0,1,67.073,0Zm-73.121,5.223-4.969-1.818a42.489,42.489,0,0,0,0,28.927l4.969-1.819a37.118,37.118,0,0,1,0-25.29m-3.552,30.534a42.315,42.315,0,0,0,76.673,0l-4.8-2.241a37.01,37.01,0,0,1-67.073,0Zm73.121-30.534a37.238,37.238,0,0,1,0,25.332l4.969,1.819a42.49,42.49,0,0,0,0-28.927Z"/><path class="b" d="M281.691,835.858a15.5,15.5,0,0,0-3.172.4V827.4l-4.419.486v23.767a22.535,22.535,0,0,0,6.534,1.121c5.329,0,8.458-1.8,8.458-8.458,0-6.682-3.151-8.458-7.4-8.458m-.7,13.131a11.017,11.017,0,0,1-2.474-.317V839.96a10.428,10.428,0,0,1,2.474-.317c2.411,0,3.552,1.078,3.552,4.673,0,3.574-1.163,4.673-3.552,4.673" transform="translate(-101.801 -94.625)"/><path class="b" d="M362.828,873.892c-1.882-.042-3.066-.063-3.066-1.078,0-1.353.8-1.628,3.235-1.628a23.91,23.91,0,0,1,4.863.613l-.359-3.658a18.375,18.375,0,0,0-4.842-.74c-5.329,0-7.359,1.924-7.359,5.54,0,3.489,2.157,4.4,5.773,4.462,2.347.042,3.552-.042,3.552,1.5,0,1.353-1.057,1.628-3.341,1.628a18.017,18.017,0,0,1-5.646-.8l.36,3.658a15.392,15.392,0,0,0,5.646.93c5.667,0,7.443-1.924,7.443-5.392-.021-4.356-2.876-4.969-6.259-5.033" transform="translate(-165.831 -126.167)"/><path class="b" d="M201.655,867.4a18.416,18.416,0,0,0-4.99.74l-.359,3.658a25.95,25.95,0,0,1,4.863-.613c2.3,0,3.235.19,3.235,2.051v.508l-3.066.169c-3.4.19-6.238.761-6.238,5.033,0,3.468,1.755,5.392,7.084,5.392a22.676,22.676,0,0,0,6.661-1.121V872.961c-.021-3.637-2.03-5.561-7.189-5.561m2.749,13a12.011,12.011,0,0,1-2.157.233c-1.924,0-2.728-.613-2.728-1.924,0-1.374.761-1.607,2.368-1.692l2.5-.169V880.4Z" transform="translate(-39.506 -126.167)"/><path class="b" d="M436.655,867.4a18.416,18.416,0,0,0-4.99.74l-.359,3.658a25.95,25.95,0,0,1,4.863-.613c2.3,0,3.235.19,3.235,2.051v.508l-3.066.169c-3.4.19-6.238.677-6.238,5.033,0,3.468,1.755,5.392,7.084,5.392a22.676,22.676,0,0,0,6.661-1.121V872.961c-.021-3.637-2.03-5.561-7.189-5.561m2.749,13a12.011,12.011,0,0,1-2.157.233c-1.924,0-2.728-.613-2.728-1.924,0-1.374.761-1.607,2.368-1.692l2.5-.169V880.4Z" transform="translate(-224.814 -126.167)"/></g></g></svg>