<svg xmlns="http://www.w3.org/2000/svg" width="176.667" height="120" viewBox="0 0 176.667 120"><defs><style>.a{fill:rgba(0,0,0,0.2);}</style></defs><path class="a" d="M88.333,2A122.491,122.491,0,0,0,54.5,6.637a104.771,104.771,0,0,0-14.723,5.427A88.471,88.471,0,0,0,27,19.228,71.342,71.342,0,0,0,16.5,27.864,56.062,56.062,0,0,0,8.639,37.7a40.761,40.761,0,0,0,0,44.6A56.062,56.062,0,0,0,16.5,92.136,71.342,71.342,0,0,0,27,100.772a88.471,88.471,0,0,0,12.783,7.163A104.771,104.771,0,0,0,54.5,113.363,122.491,122.491,0,0,0,88.333,118a122.491,122.491,0,0,0,33.831-4.637,104.771,104.771,0,0,0,14.723-5.427,88.471,88.471,0,0,0,12.783-7.163,71.342,71.342,0,0,0,10.492-8.636,56.062,56.062,0,0,0,7.865-9.839,40.761,40.761,0,0,0,0-44.6,56.062,56.062,0,0,0-7.865-9.839,71.342,71.342,0,0,0-10.492-8.636,88.471,88.471,0,0,0-12.783-7.163,104.771,104.771,0,0,0-14.723-5.427A122.491,122.491,0,0,0,88.333,2m0-2c48.785,0,88.333,26.863,88.333,60s-39.548,60-88.333,60S0,93.137,0,60,39.548,0,88.333,0Z"/><path class="a" d="M31.435,80.4l-.518-.434a2.925,2.925,0,0,1-.36-4.123A55.246,55.246,0,0,0,43.5,40.35,55.279,55.279,0,0,0,30.86,5.221a2.924,2.924,0,0,1,.375-4.1l.518-.434a2.925,2.925,0,0,1,4.133.379q1.9,2.3,3.568,4.768a61.7,61.7,0,0,1,5.693,10.489,61.428,61.428,0,0,1,3.6,11.593A62.147,62.147,0,0,1,50,40.35a62.156,62.156,0,0,1-1.254,12.438,61.455,61.455,0,0,1-3.6,11.593A61.711,61.711,0,0,1,39.454,74.87a62.112,62.112,0,0,1-3.9,5.17,2.924,2.924,0,0,1-4.118.36Zm-9.962-8.348-.514-.43A2.925,2.925,0,0,1,20.6,67.5,42.246,42.246,0,0,0,30.5,40.35,42.277,42.277,0,0,0,20.9,13.561a2.924,2.924,0,0,1,.38-4.1l.514-.43a2.924,2.924,0,0,1,4.137.384q1.462,1.777,2.748,3.681a48.8,48.8,0,0,1,4.494,8.279A48.451,48.451,0,0,1,37,40.35a48.449,48.449,0,0,1-3.831,18.972A48.824,48.824,0,0,1,28.678,67.6a48.885,48.885,0,0,1-3.087,4.088,2.923,2.923,0,0,1-4.117.36ZM11.514,63.7,11,63.276a2.925,2.925,0,0,1-.359-4.125,29.246,29.246,0,0,0,6.863-18.8A29.276,29.276,0,0,0,10.933,21.9a2.924,2.924,0,0,1,.388-4.089l.511-.428a2.925,2.925,0,0,1,4.144.391A35.66,35.66,0,0,1,21.2,26.437a35.513,35.513,0,0,1,2.81,13.914A35.517,35.517,0,0,1,21.2,54.264a35.642,35.642,0,0,1-5.567,9.082,2.924,2.924,0,0,1-4.115.358Zm-9.963-8.35-.505-.423a2.925,2.925,0,0,1-.357-4.126A16.246,16.246,0,0,0,4.511,40.35,16.056,16.056,0,0,0,.957,30.222a2.924,2.924,0,0,1,.405-4.068l.506-.423a2.924,2.924,0,0,1,4.16.412A22.668,22.668,0,0,1,9.22,31.5a22.587,22.587,0,0,1,1.789,8.854A22.6,22.6,0,0,1,9.22,49.2,22.656,22.656,0,0,1,5.665,55a2.925,2.925,0,0,1-4.113.355Z" transform="translate(63 19)"/></svg>