<svg xmlns="http://www.w3.org/2000/svg" width="106.67" height="186" viewBox="0 0 106.67 186"><defs><style>.a{fill:#fff;}.b{fill:#f59c25;}.c{fill:#000100;fill-rule:evenodd;}.d{fill:#0b999a;}.e{fill:#d6d6d6;}</style></defs><g transform="translate(28.89 0)"><path class="a" d="M403.6,463.21a53.335,53.335,0,1,1-53.335,53.335A53.335,53.335,0,0,1,403.6,463.21" transform="translate(-379.15 -463.21)"/><path class="b" d="M355.691,513.384a44.73,44.73,0,1,1,89.461,0,39.513,39.513,0,0,1-.23,4.57,46.02,46.02,0,0,1-89.008,0,39.5,39.5,0,0,1-.222-4.57" transform="translate(-375.964 -460.017)"/><path class="c" d="M397.538,521.617l-2.111-2.111a48.368,48.368,0,0,0-13.33-2.11l15,15,.444-10.775M386.89,510.985l-9.521-9.521a68.243,68.243,0,0,0-8.03-.492,62.481,62.481,0,0,0-14.6,1.587c.143-.9.317-1.793.492-2.65a64.174,64.174,0,0,1,25.517-6.982l2.38,2.428,3.174,3.174a52.369,52.369,0,0,1,22.661-5.126c-.444-.587-.9-1.206-1.349-1.793-1.587-.1-3.047-.175-4.618-.175a51.544,51.544,0,0,0-15.218,2.253l-2.92-2.92c-2.031-.175-4.094-.317-6.189-.317a64.46,64.46,0,0,0-21.613,3.333c.365-.936.714-1.793,1.079-2.7a64.463,64.463,0,0,1,17.964-9.156l-1.349-1.4a59.239,59.239,0,0,1,42.957-4.047,67.95,67.95,0,0,1,5.348,6.014c.54-.413,1.111-.762,1.746-1.174a64.536,64.536,0,0,1,19.693,9.743c.365.9.714,1.746,1.079,2.7a64.908,64.908,0,0,0-17.234-3.285c.635,1.174,1.254,2.285,1.793,3.507a62.838,62.838,0,0,1,17.234,5.967c.19.857.365,1.746.492,2.65a62.668,62.668,0,0,0-14.583-1.587H433c.4,1.127.762,2.253,1.127,3.412a63.256,63.256,0,0,1,14.282,4.221v1.888a62.172,62.172,0,0,0-7.141-.4,64.859,64.859,0,0,0-13.6,1.428c-1.428-.936-2.92-1.888-4.443-2.745l-8.887,8.934-8.982,8.982.857,22.089a44.144,44.144,0,0,1-4.935.27,43.175,43.175,0,0,1-4.84-.27l.413-9.331.127-3.539L378.5,517.46h-.365a53.485,53.485,0,0,0-9.791,1.444,19.947,19.947,0,0,1-.936-2.206,49.725,49.725,0,0,1,7.236-3.174l-2.555-2.555c-.809-.127-1.587-.27-2.428-.365s-1.841-.222-2.745-.317c-1.841-.127-3.682-.222-5.57-.222a62.241,62.241,0,0,0-7.141.4v-1.888a63.477,63.477,0,0,1,20.931-4.983l7.855,7.855c1.3-.222,2.6-.4,3.9-.492m20.3-7.189,8.712,8.664,4.935-4.935a46.293,46.293,0,0,0-14.282-4.3Zm6.871,10.505-12.7-12.7-.682-.635a46.592,46.592,0,0,0-14.187,5.919l4.078,4.078a31.237,31.237,0,0,1,5.792.1,47.176,47.176,0,0,1,1.587,7.189l6.062,6.157Z" transform="translate(-376.838 -456.761)"/><path class="d" d="M356.89,499.727a45.782,45.782,0,0,0,88.739,0c.9-.143,1.793-.222,2.65-.317a47.194,47.194,0,0,1-94.039,0c.857.1,1.746.174,2.65.317" transform="translate(-376.815 -441.965)"/><path class="e" d="M61.419.5c-6.641,0-12.576,3.442-12.576,9.8,0,7.293,10.525,7.8,10.525,11.461,0,1.543-1.768,2.924-4.788,2.924a15.9,15.9,0,0,1-7.488-1.93l-1.37,6.418a23.373,23.373,0,0,0,8.588,1.63c7.261,0,12.974-3.611,12.974-10.079,0-7.707-10.569-8.2-10.569-11.6,0-1.209,1.451-2.533,4.462-2.533A15.167,15.167,0,0,1,67.347,8l1.341-6.2A20.073,20.073,0,0,0,61.419.5ZM.661.968.5,1.9A31.227,31.227,0,0,1,5.81,3.435C9.05,4.6,9.281,5.285,9.827,7.4l5.946,22.922h7.971L36.023.968H28.07L20.18,20.926,16.96,4.008A3.481,3.481,0,0,0,13.339.968H.661Zm38.56,0L32.982,30.322h7.583L46.782.968H39.221Zm42.295,0c-1.829,0-2.8.979-3.508,2.69L66.9,30.322H74.85l1.539-4.444h9.688l.936,4.444h7.017L87.908.968ZM82.55,8.9l2.357,11.015H78.592Z" transform="translate(-16.249 155.196)"/></g></svg>