<svg xmlns="http://www.w3.org/2000/svg" width="88.271" height="15" viewBox="0 0 88.271 15"><defs><style>.a{fill:#fff;}</style></defs><path class="a" d="M6036.287,1640.435h-6.575l-1.181-2.563h-7.5l-1.182,2.563h-6.575l8.035-14.978h6.943l8.035,14.978Zm-11.5-10.643h0l-2.062,4.424h4.112l-2.05-4.424Zm-33.956,10.643h-6.575l-1.181-2.563h-7.5l-1.181,2.563h-6.575l8.035-14.978h6.942l8.035,14.978Zm-11.5-10.643h0l-2.062,4.424h4.112l-2.051-4.424Zm-11.957,10.643h-19.357v-4.759l9.862-5.472h-9.862v-4.747h19.357v4.747l-10.219,5.472h10.219v4.758Zm45.456-.022h-7.667l-5.494-5.115h-2.552v5.115h-5.84v-14.978h5.84v5.115h2.552l5.494-5.115h7.667l-7.768,7.489,7.768,7.489Z" transform="translate(-5948.016 -1625.435)"/></svg>