<svg xmlns="http://www.w3.org/2000/svg" width="176.543" height="30" viewBox="0 0 176.543 30"><defs><style>.a{fill:#fff;}</style></defs><path class="a" d="M6124.559,1655.435h-13.15l-2.362-5.126h-15l-2.362,5.126h-13.15l16.069-29.955h13.886l16.069,29.955Zm-23-21.285h0l-4.123,8.848h8.224l-4.1-8.848Zm-67.912,21.285H6020.5l-2.362-5.126h-15l-2.362,5.126h-13.15l16.07-29.955h13.885l16.07,29.955Zm-23-21.285h0l-4.123,8.848h8.224l-4.1-8.848Zm-23.915,21.285h-38.714v-9.517l19.725-10.943h-19.725v-9.495h38.714v9.495l-20.438,10.944h20.438v9.517Zm90.913-.045h-15.334l-10.988-10.23h-5.1v10.23h-11.679v-29.955h11.679v10.23h5.1l10.988-10.23h15.334l-15.535,14.978,15.535,14.977Z" transform="translate(-5948.016 -1625.435)"/></svg>