<svg xmlns="http://www.w3.org/2000/svg" width="66.524" height="51.754" viewBox="0 0 66.524 51.754"><defs><style>.a{fill:#d6d6d6;}.b{fill:#f79410;}.c{fill:#ff5f00;}.d{fill:#eb001b;}.e{fill:#f79e1b;}</style></defs><g transform="translate(-205.457 -161.041)"><g transform="translate(205.457 161.042)"><path class="a" d="M165.32,1324.344v.133h.124a.131.131,0,0,0,.066-.017.059.059,0,0,0,.025-.051.057.057,0,0,0-.025-.05.119.119,0,0,0-.066-.017h-.124Zm.125-.094a.231.231,0,0,1,.149.043.143.143,0,0,1,.052.118.135.135,0,0,1-.042.1.2.2,0,0,1-.119.05l.166.19h-.128l-.153-.188h-.05v.188h-.107v-.5h.233Zm-.033.677a.4.4,0,0,0,.163-.033.428.428,0,0,0,.133-.09.419.419,0,0,0,.09-.133.43.43,0,0,0,0-.329.436.436,0,0,0-.09-.133.429.429,0,0,0-.133-.09.418.418,0,0,0-.163-.031.438.438,0,0,0-.166.031.419.419,0,0,0-.225.556.4.4,0,0,0,.089.133.427.427,0,0,0,.136.09.414.414,0,0,0,.166.033m0-.964a.557.557,0,0,1,.391.16.537.537,0,0,1,.118.593.56.56,0,0,1-.118.172.594.594,0,0,1-.175.116.542.542,0,0,1-.215.043.551.551,0,0,1-.218-.043.566.566,0,0,1-.177-.116.56.56,0,0,1-.116-.178.537.537,0,0,1,.118-.593.526.526,0,0,1,.177-.116.553.553,0,0,1,.218-.043m-50.926-1.938a1.653,1.653,0,1,1,1.656,1.748,1.638,1.638,0,0,1-1.656-1.748m4.419,0v-2.73h-1.187v.665a2.069,2.069,0,0,0-1.724-.8,2.87,2.87,0,0,0,0,5.733,2.07,2.07,0,0,0,1.724-.8v.663h1.186v-2.731Zm40.106,0a1.653,1.653,0,1,1,1.656,1.748,1.638,1.638,0,0,1-1.656-1.748m4.421,0V1317.1h-1.188v2.857a2.069,2.069,0,0,0-1.724-.8,2.87,2.87,0,0,0,0,5.733,2.07,2.07,0,0,0,1.724-.8v.663h1.188Zm-29.795-1.8a1.355,1.355,0,0,1,1.382,1.324h-2.832a1.406,1.406,0,0,1,1.451-1.324m.024-1.064a2.869,2.869,0,0,0,.079,5.733,3.316,3.316,0,0,0,2.238-.765l-.582-.88a2.6,2.6,0,0,1-1.588.571,1.516,1.516,0,0,1-1.633-1.337h4.053c.012-.148.024-.3.024-.456a2.619,2.619,0,0,0-2.592-2.866m14.331,2.866a1.653,1.653,0,1,1,1.656,1.748,1.638,1.638,0,0,1-1.656-1.748m4.419,0v-2.729h-1.186v.665a2.071,2.071,0,0,0-1.724-.8,2.87,2.87,0,0,0,0,5.733,2.071,2.071,0,0,0,1.724-.8v.663h1.187v-2.731Zm-11.122,0a2.757,2.757,0,0,0,2.912,2.866,2.853,2.853,0,0,0,1.962-.651l-.57-.959a2.4,2.4,0,0,1-1.43.492,1.751,1.751,0,0,1,0-3.5,2.4,2.4,0,0,1,1.43.492l.57-.959a2.856,2.856,0,0,0-1.962-.651,2.757,2.757,0,0,0-2.912,2.866m15.3-2.866a1.611,1.611,0,0,0-1.439.8v-.662h-1.176v5.458h1.188v-3.06c0-.9.388-1.405,1.164-1.405a1.924,1.924,0,0,1,.742.137l.366-1.119a2.522,2.522,0,0,0-.846-.149m-31.816.571a4.081,4.081,0,0,0-2.226-.571c-1.383,0-2.273.663-2.273,1.747,0,.89.663,1.439,1.883,1.61l.561.08c.651.091.958.263.958.571,0,.422-.432.663-1.244.663a2.909,2.909,0,0,1-1.816-.571l-.558.926a3.938,3.938,0,0,0,2.363.708c1.576,0,2.49-.742,2.49-1.782,0-.959-.719-1.461-1.907-1.633l-.559-.081c-.514-.067-.926-.17-.926-.536,0-.4.388-.639,1.039-.639a3.521,3.521,0,0,1,1.7.468l.514-.959Zm15.315-.57a1.608,1.608,0,0,0-1.438.8v-.664h-1.176v5.458h1.187v-3.06c0-.9.388-1.405,1.164-1.405a1.924,1.924,0,0,1,.742.137l.366-1.119a2.522,2.522,0,0,0-.846-.149m-10.128.137h-1.941v-1.656h-1.2v1.656h-1.107v1.085h1.107v2.49c0,1.266.492,2.021,1.9,2.021a2.788,2.788,0,0,0,1.485-.422l-.343-1.016a2.2,2.2,0,0,1-1.051.309c-.593,0-.787-.366-.787-.914v-2.466h1.941Zm-17.746,5.46v-3.426a2.032,2.032,0,0,0-2.147-2.17,2.113,2.113,0,0,0-1.919.971,2,2,0,0,0-1.8-.971,1.806,1.806,0,0,0-1.6.81v-.675H103.56v5.458h1.2v-3.026a1.278,1.278,0,0,1,1.337-1.451c.788,0,1.187.514,1.187,1.439v3.038h1.2v-3.026a1.288,1.288,0,0,1,1.336-1.451c.81,0,1.2.514,1.2,1.439v3.038Z" transform="translate(-100.116 -1273.297)"/><path class="b" d="M1930.582,978.018v-.8h-.208l-.24.548-.239-.548h-.209v.8h.148v-.6l.225.519h.153l.225-.52v.6h.146Zm-1.319,0v-.661h.266v-.135h-.68v.135h.266v.661h.146Z" transform="translate(-1864.701 -944.721)"/><path class="c" d="M747.7,164.476H729.71V132.15H747.7Z" transform="translate(-705.442 -127.756)"/><path class="d" d="M25.409,20.558A20.525,20.525,0,0,1,33.26,4.4a20.559,20.559,0,1,0,0,32.326,20.525,20.525,0,0,1-7.852-16.163"/><path class="e" d="M1033.372,20.558a20.558,20.558,0,0,1-33.262,16.163,20.561,20.561,0,0,0,0-32.326,20.557,20.557,0,0,1,33.262,16.163" transform="translate(-966.849 0)"/></g></g></svg>