<svg xmlns="http://www.w3.org/2000/svg" width="204.939" height="136.095" viewBox="0 0 204.939 136.095"><defs><style>.a{fill:#d6d6d6;}</style></defs><g transform="translate(-67.042 -76.7)"><path d="M222.914,112.544V82.3l17.394,11.772v54.347L159.487,94.622,178.016,82.3Zm22.436-20.72L222.914,76.7,200.478,91.824,178.016,76.7,155,91.824v59.942l23.016,15.124,22.462-15.124,22.436,15.124,22.436-15.124Zm-67.333,44.818,17.948,12.326L178.016,161.3Z" transform="translate(-87.958)"/><path class="a" d="M61.419.5c-6.641,0-12.576,3.442-12.576,9.8,0,7.293,10.525,7.8,10.525,11.461,0,1.543-1.768,2.924-4.788,2.924a15.9,15.9,0,0,1-7.488-1.93l-1.37,6.418a23.373,23.373,0,0,0,8.588,1.63c7.261,0,12.974-3.611,12.974-10.079,0-7.707-10.569-8.2-10.569-11.6,0-1.209,1.451-2.533,4.462-2.533A15.167,15.167,0,0,1,67.347,8l1.341-6.2A20.073,20.073,0,0,0,61.419.5ZM.661.968.5,1.9A31.227,31.227,0,0,1,5.81,3.435C9.05,4.6,9.281,5.285,9.827,7.4l5.946,22.922h7.971L36.023.968H28.07L20.18,20.926,16.96,4.008A3.481,3.481,0,0,0,13.339.968H.661Zm38.56,0L32.982,30.322h7.583L46.782.968H39.221Zm42.295,0c-1.829,0-2.8.979-3.508,2.69L66.9,30.322H74.85l1.539-4.444h9.688l.936,4.444h7.017L87.908.968ZM82.55,8.9l2.357,11.015H78.592Z" transform="translate(177.952 181.991)"/></g></svg>