<svg xmlns="http://www.w3.org/2000/svg" width="1188.373" height="827.53" viewBox="0 0 1188.373 827.53"><defs><style>.a{fill:none;opacity:0.2;}.b,.c{stroke:none;}.c{fill:#03fcfc;}</style></defs><g class="a" transform="translate(10.373 146.131)"><path class="b" d="M589,0c197.411,385.568,589,167.446,589,374S926.087,681.4,600.792,681.4C281.351,681.4,9.513,586.528.25,385,.085,381.423,0,377.718,0,374-86.58,81.036,391.589-385.568,589,0Z"/><path class="c" d="M 384.2049560546875 -144.131103515625 C 358.7644653320312 -144.131103515625 332.1576538085938 -139.5525817871094 305.123779296875 -130.5227661132812 C 279.2412719726562 -121.87744140625 252.9953002929688 -109.1719360351562 227.114990234375 -92.75909423828125 C 202.0242919921875 -76.84710693359375 177.4756469726562 -57.58493041992188 154.1509399414062 -35.50775146484375 C 131.1476440429688 -13.73492431640625 109.631103515625 10.49090576171875 90.198974609375 36.49673461914062 C 50.8125 89.20724487304688 21.5439453125 147.1110687255859 5.5576171875 203.9485778808594 C -2.8114013671875 233.7039031982422 -7.45654296875 262.9087524414062 -8.2486572265625 290.7520751953125 C -8.6578369140625 305.1317443847656 -8.0330810546875 319.31005859375 -6.3917236328125 332.8934020996094 C -4.70654296875 346.8382263183594 -1.910888671875 360.4777221679688 1.91796875 373.4332275390625 L 2 373.7107543945312 L 2 374.0000610351562 C 2 377.6602478027344 2.083251953125 381.3317260742188 2.247802734375 384.9124145507812 C 2.8143310546875 397.2342529296875 4.4012451171875 409.4145812988281 6.965087890625 421.1148986816406 C 9.48583984375 432.6190795898438 13.017822265625 443.9667358398438 17.4632568359375 454.8427429199219 C 21.8372802734375 465.5438842773438 27.2119140625 476.0732421875 33.437744140625 486.138427734375 C 39.5679931640625 496.0487365722656 46.6854248046875 505.7710571289062 54.5924072265625 515.035400390625 C 62.3824462890625 524.16259765625 71.143310546875 533.084716796875 80.63177490234375 541.554443359375 C 89.98431396484375 549.902587890625 100.28759765625 558.0287475585938 111.2554321289062 565.707275390625 C 122.0712890625 573.2794189453125 133.8135986328125 580.6122436523438 146.1563110351562 587.50244140625 C 158.3347778320312 594.3009033203125 171.4113159179688 600.8433837890625 185.0227661132812 606.9480590820312 C 238.2332763671875 630.813232421875 301.7579345703125 649.1519165039062 373.8321533203125 661.4548950195312 C 408.681640625 667.4037475585938 445.6832885742188 671.9389038085938 483.8092651367188 674.9347534179688 C 521.505126953125 677.8969116210938 560.8636474609375 679.3987426757812 600.79150390625 679.3987426757812 C 682.678466796875 679.3987426757812 759.0736083984375 673.0223999023438 827.8546142578125 660.4470825195312 C 898.2639770507812 647.5739135742188 959.714111328125 628.3680419921875 1010.498107910156 603.363037109375 C 1023.410278320312 597.0052490234375 1035.774169921875 590.1904296875 1047.246337890625 583.1075439453125 C 1058.841918945312 575.9486083984375 1069.830932617188 568.3280639648438 1079.907836914062 560.457763671875 C 1090.099609375 552.4974365234375 1099.62744140625 544.0715942382812 1108.226684570312 535.4140625 C 1116.929321289062 526.6524047851562 1124.911743164062 517.4208984375 1131.952270507812 507.9758911132812 C 1139.08251953125 498.410888671875 1145.436767578125 488.3713989257812 1150.839111328125 478.13623046875 C 1156.314331054688 467.7630615234375 1160.958740234375 456.9100646972656 1164.643310546875 445.8787231445312 C 1168.380615234375 434.6892395019531 1171.231323242188 423.013916015625 1173.116333007812 411.1769104003906 C 1175.02978515625 399.1612548828125 1176 386.6532287597656 1176 374.0000610351562 C 1176 368.5697326660156 1175.720458984375 363.3265686035156 1175.169311523438 358.4160766601562 C 1174.627807617188 353.5927429199219 1173.807739257812 348.9440612792969 1172.73193359375 344.5992431640625 C 1171.677124023438 340.3392333984375 1170.34375 336.24072265625 1168.769165039062 332.4174194335938 C 1167.227294921875 328.673583984375 1165.40576171875 325.076904296875 1163.35546875 321.7275695800781 C 1155.590942382812 309.0442504882812 1144.120971679688 299.014404296875 1128.289916992188 291.0649108886719 C 1098.006103515625 275.8580627441406 1055.377075195312 269.9850769042969 1006.016967773438 263.1847534179688 C 876.833984375 245.3870697021484 699.91162109375 221.0124053955078 587.2197875976562 0.91156005859375 C 580.6849365234375 -11.85159301757812 573.6793212890625 -23.96609497070312 566.3971557617188 -35.09542846679688 C 559.276611328125 -45.97760009765625 551.7033081054688 -56.20626831054688 543.8876342773438 -65.49691772460938 C 536.2467651367188 -74.57977294921875 528.1731567382812 -83.00558471679688 519.8908081054688 -90.54025268554688 C 511.7939453125 -97.90625 503.2854614257812 -104.6135864257812 494.6019897460938 -110.4759216308594 C 461.5233154296875 -132.8079223632812 424.3803100585938 -144.131103515625 384.2049560546875 -144.131103515625 M 384.2049560546875 -146.1310729980469 C 461.8623046875 -146.1310729980469 535.6590576171875 -104.1814270019531 589 6.103515625e-05 C 786.4109497070312 385.5679016113281 1178 167.4455718994141 1178 374.0000610351562 C 1178 580.554443359375 926.087158203125 681.3987426757812 600.79150390625 681.3987426757812 C 281.3511352539062 681.3987426757812 9.5133056640625 586.5281982421875 0.25 385.0042419433594 C 0.08544921875 381.4232482910156 0 377.7178955078125 0 374.0000610351562 C -63.1859130859375 160.1958312988281 174.458251953125 -146.1310729980469 384.2049560546875 -146.1310729980469 Z"/></g></svg>