<svg xmlns="http://www.w3.org/2000/svg" width="1188.373" height="827.53" viewBox="0 0 1188.373 827.53"><defs><style>.a{fill:red;opacity:0.2;}.b,.c{stroke:none;}.c{fill:#707070;}</style></defs><g class="a" transform="translate(10.373 146.131)"><path class="b" d="M 600.79150390625 680.8988037109375 C 560.8245849609375 680.8988037109375 521.4265747070312 679.3953857421875 483.6918029785156 676.4302978515625 C 445.5208740234375 673.4309692382812 408.4738159179688 668.8900146484375 373.5798034667969 662.9335327148438 C 301.3810424804688 650.609375 237.7348785400391 632.2337036132812 184.4090423583984 608.3167724609375 C 170.7578125 602.1941528320312 157.6416473388672 595.6318969726562 145.4251861572266 588.8123168945312 C 133.0382690429688 581.8973999023438 121.2524261474609 574.5372314453125 110.3951950073242 566.9361572265625 C 99.37918853759766 559.223876953125 89.02934265136719 551.060791015625 79.63304138183594 542.673583984375 C 70.0941162109375 534.158935546875 61.28534698486328 525.1876831054688 53.45165252685547 516.00927734375 C 45.49503707885742 506.6871032714844 38.33226776123047 496.9026489257812 32.16211318969727 486.9275512695312 C 25.89273071289062 476.7920227050781 20.48026847839355 466.1881713867188 16.07488441467285 455.4103393554688 C 11.59688377380371 444.4546508789062 8.038884162902832 433.024169921875 5.499806880950928 421.43603515625 C 2.91796088218689 409.6529541015625 1.319653272628784 397.3877258300781 0.7494993805885315 384.9814147949219 C 0.5839609503746033 381.3768005371094 0.4999609291553497 377.6821594238281 0.4999609291553497 374.0000305175781 L 0.4999609291553497 373.9277038574219 L 0.4794993996620178 373.8583374023438 C -3.372962236404419 360.8229370117188 -6.185731410980225 347.1007995605469 -7.880808353424072 333.0733947753906 C -9.531115531921387 319.4164733886719 -10.15927028656006 305.1630859375 -9.748039245605469 290.7094116210938 C -8.952346801757812 262.7432556152344 -4.288654327392578 233.416015625 4.113653182983398 203.54248046875 C 20.14934539794922 146.5295562744141 49.50149917602539 88.45555877685547 88.99734497070312 35.59894561767578 C 108.4805755615234 9.524636268615723 130.0545806884766 -14.76551818847656 153.1198120117188 -36.59720993041992 C 176.5144195556641 -58.74044036865234 201.1396484375 -78.06228637695312 226.3116607666016 -94.02582550048828 C 252.2945709228516 -110.5036697387695 278.65087890625 -123.2616729736328 304.6485900878906 -131.9453582763672 C 331.8359680175781 -141.0265960693359 358.6027221679688 -145.6310577392578 384.2050476074219 -145.6310577392578 C 424.6848754882812 -145.6310577392578 462.1102600097656 -134.2215118408203 495.4413452148438 -111.7192077636719 C 504.1845703125 -105.8165969848633 512.7501220703125 -99.06428527832031 520.9002685546875 -91.64982604980469 C 529.2318115234375 -84.07044219970703 537.3519897460938 -75.59629058837891 545.0355224609375 -66.46259307861328 C 552.8896484375 -57.12613296508789 560.4990234375 -46.84905624389648 567.6522827148438 -35.916748046875 C 574.9635009765625 -24.74305534362793 581.99609375 -12.5822868347168 588.5548706054688 0.2278668135404587 C 700.8904418945312 219.6331024169922 877.3653564453125 243.9461669921875 1006.221801757812 261.6987915039062 C 1055.713989257812 268.5173950195312 1098.45703125 274.406005859375 1128.963012695312 289.7244873046875 C 1145.051513671875 297.8031005859375 1156.719848632812 308.0152587890625 1164.634765625 320.9444885253906 C 1166.726440429688 324.3612365722656 1168.584106445312 328.0290832519531 1170.156127929688 331.8461608886719 C 1171.758911132812 335.737548828125 1173.115356445312 339.9071044921875 1174.18798828125 344.2388000488281 C 1175.279541015625 348.6467895507812 1176.111206054688 353.3604736328125 1176.659912109375 358.248779296875 C 1177.21728515625 363.2144775390625 1177.5 368.5140075683594 1177.5 374.0000305175781 C 1177.5 386.7318725585938 1176.523559570312 399.3193969726562 1174.59765625 411.4127807617188 C 1172.699829101562 423.3307800292969 1169.829345703125 435.0866394042969 1166.06591796875 446.3538818359375 C 1162.355712890625 457.4624938964844 1157.678833007812 468.3912658691406 1152.165649414062 478.8364868164062 C 1146.727294921875 489.1398620605469 1140.331176757812 499.2453918457031 1133.155029296875 508.8724670410156 C 1126.072265625 518.3738403320312 1118.043334960938 527.659423828125 1109.290893554688 536.4712524414062 C 1100.647705078125 545.173095703125 1091.072387695312 553.64111328125 1080.831176757812 561.639892578125 C 1070.711059570312 569.5440063476562 1059.676635742188 577.1963500976562 1048.034423828125 584.384033203125 C 1036.521606445312 591.4918823242188 1024.115478515625 598.3300170898438 1011.160705566406 604.7088012695312 C 960.25244140625 629.7750854492188 898.6701049804688 649.0244750976562 828.1245727539062 661.922607421875 C 759.2546997070312 674.5143432617188 682.7687377929688 680.8988037109375 600.79150390625 680.8988037109375 Z"/><path class="c" d="M 384.2050170898438 -145.1310424804688 C 358.6565551757812 -145.1310424804688 331.9431762695312 -140.5352172851562 304.8070678710938 -131.4712219238281 C 278.84765625 -122.80029296875 252.5281372070312 -110.0596618652344 226.5795288085938 -93.603515625 C 201.4345703125 -77.65719604492188 176.8348999023438 -58.355224609375 153.4635009765625 -36.23397827148438 C 130.4188842773438 -14.42196655273438 108.8641357421875 9.8468017578125 89.3978271484375 35.89816284179688 C 49.9384765625 88.7061767578125 20.6141357421875 146.7234039306641 4.5950927734375 203.6778564453125 C -3.796142578125 233.5120239257812 -8.4537353515625 262.7984924316406 -9.248291015625 290.7237243652344 C -9.6588134765625 305.1526489257812 -9.03173828125 319.3809509277344 -7.3843994140625 333.0133972167969 C -5.692626953125 347.0132446289062 -2.8856201171875 360.7078857421875 0.9588623046875 373.7166442871094 L 1 373.8554077148438 L 1 374.0000305175781 C 1 377.6746215820312 1.0836181640625 381.361572265625 1.2489013671875 384.95849609375 C 1.8179931640625 397.3366394042969 3.4124755859375 409.5735473632812 5.98828125 421.3291015625 C 8.521240234375 432.8890991210938 12.070556640625 444.2920227050781 16.53759765625 455.2210998535156 C 20.9326171875 465.973388671875 26.33251953125 476.552490234375 32.58740234375 486.6646423339844 C 38.744140625 496.6180419921875 45.891845703125 506.3818664550781 53.8319091796875 515.6846313476562 C 61.6510009765625 524.8460083007812 70.44378662109375 533.8009643554688 79.9659423828125 542.3004760742188 C 89.34765625 550.6748046875 99.68194580078125 558.8255615234375 110.6819458007812 566.5264892578125 C 121.5253295898438 574.1180419921875 133.2967529296875 581.4691162109375 145.6688842773438 588.375732421875 C 157.8727416992188 595.1883544921875 170.9756469726562 601.743896484375 184.6136474609375 607.860595703125 C 237.9010620117188 631.7601318359375 301.5067138671875 650.12353515625 373.6639404296875 662.4407958984375 C 408.543212890625 668.3944702148438 445.5750122070312 672.93359375 483.7308959960938 675.931884765625 C 521.4527587890625 678.8958740234375 560.837646484375 680.3988037109375 600.79150390625 680.3988037109375 C 682.73876953125 680.3988037109375 759.1942749023438 674.01708984375 828.0345458984375 661.4307861328125 C 898.5347290039062 648.5409545898438 960.0730590820312 629.3060302734375 1010.939819335938 604.2601318359375 C 1023.880432128906 597.8884887695312 1036.2724609375 591.0579833984375 1047.771606445312 583.9586181640625 C 1059.3984375 576.7803344726562 1070.417602539062 569.1387939453125 1080.523315429688 561.245849609375 C 1090.748168945312 553.2598876953125 1100.3076171875 544.8060302734375 1108.936279296875 536.1187744140625 C 1117.671997070312 527.32373046875 1125.685546875 518.05615234375 1132.754150390625 508.5735473632812 C 1139.914916992188 498.9672546386719 1146.297241210938 488.8837280273438 1151.723510742188 478.6030883789062 C 1157.22412109375 468.181884765625 1161.890014648438 457.2783203125 1165.591796875 446.195556640625 C 1169.346435546875 434.9541625976562 1172.210205078125 423.22509765625 1174.10400390625 411.3341674804688 C 1176.025634765625 399.2666320800781 1177 386.7057189941406 1177 374.0000305175781 C 1177 368.5326538085938 1176.718383789062 363.2518615722656 1176.1630859375 358.3044738769531 C 1175.61669921875 353.4378662109375 1174.7890625 348.7458801269531 1173.70263671875 344.3589477539062 C 1172.635986328125 340.0510864257812 1171.287231445312 335.9052429199219 1169.69384765625 332.0364990234375 C 1168.1318359375 328.2438659667969 1166.286254882812 324.5997009277344 1164.208251953125 321.2054138183594 C 1156.343505859375 308.3581848144531 1144.741333007812 298.206787109375 1128.73876953125 290.1712646484375 C 1098.306762695312 274.8900146484375 1055.601806640625 269.0066223144531 1006.153503417969 262.1940307617188 C 877.1881103515625 244.4264831542969 700.5640869140625 220.0929412841797 588.1098022460938 0.455718994140625 C 581.55908203125 -12.3387451171875 574.5353393554688 -24.484130859375 567.2338256835938 -35.64306640625 C 560.0916748046875 -46.55859375 552.4942626953125 -56.81951904296875 544.6528930664062 -66.1407470703125 C 536.983642578125 -75.25750732421875 528.87890625 -83.71551513671875 520.5637817382812 -91.27996826171875 C 512.4313354492188 -98.67828369140625 503.8848876953125 -105.4156799316406 495.1616821289062 -111.3047485351562 C 461.91455078125 -133.7502746582031 424.5833740234375 -145.1310424804688 384.2050170898438 -145.1310424804688 M 384.2049560546875 -146.131103515625 C 461.8623046875 -146.131103515625 535.6589965820312 -104.1814575195312 589 3.0517578125e-05 C 786.410888671875 385.56787109375 1178 167.445556640625 1178 374.0000305175781 C 1178 580.554443359375 926.087158203125 681.3988037109375 600.79150390625 681.3988037109375 C 281.3511962890625 681.3988037109375 9.5133056640625 586.5283203125 0.25 385.0043334960938 C 0.08544921875 381.4232482910156 0 377.718017578125 0 374.0000305175781 C -63.1859130859375 160.1958923339844 174.458251953125 -146.131103515625 384.2049560546875 -146.131103515625 Z"/></g></svg>