<svg xmlns="http://www.w3.org/2000/svg" width="300" height="100" viewBox="0 0 300 100"><defs><style>.a{fill:none;}.b,.c{stroke:none;}.c{fill:#03fcfc;}</style></defs><g class="a"><path class="b" d="M20,0H280a20,20,0,0,1,20,20V80a20,20,0,0,1-20,20H20A20,20,0,0,1,0,80V20A20,20,0,0,1,20,0Z"/><path class="c" d="M 20 2 C 15.19204711914062 2 10.67184448242188 3.872344970703125 7.272064208984375 7.272079467773438 C 3.872344970703125 10.67184448242188 2 15.19203948974609 2 20 L 2 80 C 2 84.80796051025391 3.872344970703125 89.32815551757812 7.272064208984375 92.72792053222656 C 10.67184448242188 96.12765502929688 15.19204711914062 98 20 98 L 280 98 C 284.8079528808594 98 289.3281555175781 96.12765502929688 292.7279357910156 92.72792053222656 C 296.1276550292969 89.32815551757812 298 84.80796051025391 298 80 L 298 20 C 298 15.19203948974609 296.1276550292969 10.67184448242188 292.7279357910156 7.272079467773438 C 289.3281555175781 3.872344970703125 284.8079528808594 2 280 2 L 20 2 M 20 0 L 280 0 C 291.0456848144531 0 300 8.954307556152344 300 20 L 300 80 C 300 91.04569244384766 291.0456848144531 100 280 100 L 20 100 C 8.954315185546875 100 0 91.04569244384766 0 80 L 0 20 C 0 8.954307556152344 8.954315185546875 0 20 0 Z"/></g></svg>