<svg xmlns="http://www.w3.org/2000/svg" width="174" height="60" viewBox="0 0 174 60"><defs><style>.a{fill:#1f5d5e;}.b,.c{stroke:none;}.c{fill:#25b386;}</style></defs><g class="a"><path class="b" d="M 146 59 L 28 59 C 24.35459136962891 59 20.81872749328613 58.28627395629883 17.49068260192871 56.87861251831055 C 14.27565956115723 55.51877212524414 11.38806819915771 53.57184219360352 8.908113479614258 51.09188461303711 C 6.428159236907959 48.61193084716797 4.481227397918701 45.72434234619141 3.121386289596558 42.50931930541992 C 1.713727235794067 39.1812744140625 1 35.64540863037109 1 32 L 1 28 C 1 24.35459136962891 1.713727235794067 20.81872749328613 3.121386289596558 17.49068260192871 C 4.481227397918701 14.27565956115723 6.428159236907959 11.38806819915771 8.908113479614258 8.908113479614258 C 11.38806819915771 6.428159236907959 14.27565956115723 4.481227397918701 17.49068260192871 3.121386289596558 C 20.81872749328613 1.713727235794067 24.35459136962891 1 28 1 L 146 1 C 149.6454162597656 1 153.1812744140625 1.713727235794067 156.5093231201172 3.121386289596558 C 159.7243347167969 4.481227397918701 162.6119384765625 6.428159236907959 165.0918884277344 8.908113479614258 C 167.5718383789062 11.38806819915771 169.5187683105469 14.27565956115723 170.8786163330078 17.49068260192871 C 172.2862701416016 20.81872749328613 173 24.35459136962891 173 28 L 173 32 C 173 35.64540863037109 172.2862701416016 39.1812744140625 170.8786163330078 42.50931930541992 C 169.5187683105469 45.72434234619141 167.5718383789062 48.61193084716797 165.0918884277344 51.09188461303711 C 162.6119384765625 53.57184219360352 159.7243347167969 55.51877212524414 156.5093231201172 56.87861251831055 C 153.1812744140625 58.28627395629883 149.6454162597656 59 146 59 Z"/><path class="c" d="M 28 2 C 24.4891357421875 2 21.0843505859375 2.687168121337891 17.88023376464844 4.042381286621094 C 14.78440856933594 5.351810455322266 12.003662109375 7.226787567138672 9.615219116210938 9.615215301513672 C 7.226791381835938 12.00366592407227 5.351806640625 14.78440475463867 4.042373657226562 17.8802375793457 C 2.687164306640625 21.08435821533203 2 24.48914337158203 2 28 L 2 32 C 2 35.51085662841797 2.687164306640625 38.91564178466797 4.042373657226562 42.1197624206543 C 5.351806640625 45.21559524536133 7.226791381835938 47.99633407592773 9.615219116210938 50.38478469848633 C 12.003662109375 52.77321624755859 14.78440856933594 54.64818954467773 17.88023376464844 55.95761871337891 C 21.0843505859375 57.31283187866211 24.4891357421875 58 28 58 L 146 58 C 149.5108642578125 58 152.9156494140625 57.31283187866211 156.1197662353516 55.95761871337891 C 159.2155914306641 54.64818954467773 161.996337890625 52.77321624755859 164.3847808837891 50.38478469848633 C 166.7732086181641 47.99633407592773 168.648193359375 45.21559524536133 169.9576263427734 42.1197624206543 C 171.3128356933594 38.91564178466797 172 35.51085662841797 172 32 L 172 28 C 172 24.48914337158203 171.3128356933594 21.08435821533203 169.9576263427734 17.8802375793457 C 168.648193359375 14.78440475463867 166.7732086181641 12.00366592407227 164.3847808837891 9.615215301513672 C 161.996337890625 7.226787567138672 159.2155914306641 5.351810455322266 156.1197662353516 4.042381286621094 C 152.9156494140625 2.687168121337891 149.5108642578125 2 146 2 L 28 2 M 28 0 L 146 0 C 161.4639739990234 0 174 12.5360221862793 174 28 L 174 32 C 174 47.46397399902344 161.4639739990234 60 146 60 L 28 60 C 12.53602600097656 60 0 47.46397399902344 0 32 L 0 28 C 0 12.5360221862793 12.53602600097656 0 28 0 Z"/></g></svg>